<svg width="20" height="25" viewBox="0 0 20 25" fill="none" xmlns="http://www.w3.org/2000/svg">
<path d="M10 24.434C10.8161 24.434 11.3937 23.8565 11.3937 23.0278V7.52138L11.2932 4.80933L14.5452 8.43795L17.4079 11.2756C17.659 11.5267 18.0106 11.6899 18.3998 11.6899C19.1657 11.6899 19.7433 11.1123 19.7433 10.3213C19.7433 9.95721 19.6052 9.6182 19.3039 9.31686L11.0296 1.03003C10.7533 0.741246 10.3767 0.590576 10 0.590576C9.61077 0.590576 9.2341 0.741246 8.95787 1.03003L0.696152 9.31686C0.394812 9.6182 0.256699 9.95721 0.256699 10.3213C0.256699 11.1123 0.82171 11.6899 1.58761 11.6899C1.9894 11.6899 2.34096 11.5267 2.59208 11.2756L5.44224 8.43795L8.70675 4.79677L8.59375 7.52138V23.0278C8.59375 23.8565 9.17132 24.434 10 24.434Z" fill="#141414"/>
</svg>
