<svg width="45" height="384" viewBox="0 0 45 384" fill="none" xmlns="http://www.w3.org/2000/svg">
<rect x="22" width="1" height="171" fill="#DD983E"/>
<rect x="22" y="214" width="1" height="170" fill="#DD983E"/>
<circle cx="22.5" cy="192.5" r="22" fill="white" fill-opacity="0.2" stroke="#DD983E"/>
<path d="M10.7707 192.802C10.7707 192.978 10.836 193.129 10.9766 193.259L14.8839 197.086C14.9944 197.197 15.1351 197.257 15.3008 197.257C15.6323 197.257 15.8984 196.996 15.8984 196.66C15.8984 196.494 15.8281 196.348 15.7176 196.233L12.197 192.802L15.7176 189.372C15.8281 189.257 15.8984 189.106 15.8984 188.945C15.8984 188.609 15.6323 188.348 15.3008 188.348C15.1351 188.348 14.9944 188.408 14.8839 188.518L10.9766 192.34C10.836 192.476 10.7707 192.627 10.7707 192.802Z" fill="#DD983E"/>
<path d="M33.2294 192.802C33.2243 192.627 33.159 192.476 33.0234 192.34L29.1161 188.518C29.0006 188.408 28.865 188.348 28.6992 188.348C28.3627 188.348 28.1016 188.609 28.1016 188.945C28.1016 189.106 28.1669 189.257 28.2824 189.372L31.798 192.802L28.2824 196.233C28.1669 196.348 28.1016 196.494 28.1016 196.66C28.1016 196.996 28.3627 197.257 28.6992 197.257C28.8599 197.257 29.0006 197.197 29.1161 197.086L33.0234 193.259C33.1641 193.129 33.2294 192.978 33.2294 192.802Z" fill="#DD983E"/>
</svg>
