<svg width="141" height="38" viewBox="0 0 141 38" fill="none" xmlns="http://www.w3.org/2000/svg">
<path d="M137.161 7.65506L130.534 25.0746L123.226 7.61719H120.348L129.209 28.6342C127.846 32.2317 127.429 33.2542 126.558 33.898C125.839 34.4281 125.119 34.466 123.756 34.4281V37.1168C125.839 37.1547 126.823 37.1168 127.883 36.3594C129.057 35.5642 129.853 34.1252 130.61 32.0803L140.001 7.65506H137.161Z" fill="white"/>
<path d="M115.349 7.05078C113.645 7.08865 111.865 7.61881 110.539 8.75487C109.82 9.36076 109.252 9.96666 108.835 10.6862V7.61881H106.336V28.0678H109.138V18.3356C109.138 15.3819 109.176 13.034 111.107 11.2163C112.092 10.2696 113.531 9.70158 115.159 9.66371C116.257 9.62584 117.242 9.77732 118.113 10.1181V7.42947C117.204 7.16439 116.295 7.05078 115.349 7.05078Z" fill="white"/>
<path d="M86.6049 18.6386H102.699C102.775 15.4955 102.282 12.5417 100.503 10.3075C98.7228 8.07323 96.2235 7.05078 93.3076 7.05078C90.3539 7.05078 87.7031 8.14897 85.9233 10.3453C84.2192 12.5039 83.6133 15.2304 83.6133 17.9191C83.6133 20.4941 84.2192 23.1449 85.9233 25.3034C87.6273 27.4998 90.4675 28.6359 93.3834 28.6359C95.2011 28.6359 97.0566 28.1814 98.6092 27.2726C100.162 26.3259 101.487 24.8869 102.32 23.0313L99.7074 22.0467C99.1015 23.2585 98.2684 24.2052 97.2081 24.9247C96.072 25.6442 94.7466 25.9851 93.3076 25.9851C91.2627 25.9851 89.2936 25.1519 88.1196 23.5993C87.0972 22.2361 86.6806 20.4562 86.6049 18.6386ZM93.3076 9.58797C95.2768 9.58797 97.246 10.3832 98.382 11.898C99.3287 13.1098 99.6695 14.5488 99.7832 16.2528H86.6428C86.7942 14.6624 87.2108 13.1476 88.1575 11.9358C89.3693 10.3453 91.3006 9.58797 93.3076 9.58797Z" fill="white"/>
<path d="M77.7832 8.60068C76.5335 7.54036 74.8294 7.08594 73.3147 7.08594C71.0047 7.08594 68.8083 8.14625 67.5208 10.0018L67.18 10.532C66.8392 9.85034 66.3469 9.20658 65.5895 8.60068C64.3398 7.54036 62.6358 7.08594 61.121 7.08594C58.9246 7.08594 56.7283 8.07052 55.4407 9.85034V7.6161H52.9414V28.0651H55.7437V14.8869C55.7437 13.5615 55.8952 12.4254 56.804 11.2893C57.7128 10.1912 59.0761 9.54739 60.5151 9.54739C61.6133 9.54739 62.7115 9.96395 63.5067 10.6834C65.0593 11.971 65.1729 13.3342 65.1729 15.6064L65.1351 28.0651H67.8995V15.4928V14.8869C67.8995 13.5615 68.051 12.4254 68.9977 11.2893C69.8686 10.1912 71.2319 9.54739 72.7088 9.54739C73.807 9.54739 74.8673 9.96395 75.6625 10.6834C77.2151 11.971 77.3287 13.3342 77.3287 15.6064V28.0651H80.0553L80.0932 15.4928C80.0932 12.5011 80.0174 10.4562 77.7832 8.60068Z" fill="white"/>
<path d="M14.39 8.75318C12.686 7.38991 10.6032 7.01122 8.59616 7.1627C6.77847 7.23844 4.84717 7.8822 3.48391 9.28334C3.10522 9.66202 2.7644 10.0786 2.49932 10.4951V0.800781H0V28.0661H2.80227V17.5387C2.80227 16.4784 2.84014 15.4938 3.02948 14.6228C3.29456 13.2217 3.93833 11.972 4.92291 11.101C5.83176 10.2679 7.08142 9.8135 8.40682 9.77563C9.92156 9.69989 11.2848 10.0786 12.383 10.8738C14.4279 12.3886 14.7687 15.0394 14.7687 18.2203V28.0661H17.571V18.1446C17.6089 14.5092 17.2302 10.8738 14.39 8.75318Z" fill="white"/>
<path fill-rule="evenodd" clip-rule="evenodd" d="M32.1947 6.62244C33.5906 6.60403 34.99 6.59473 35.2555 6.59473C35.5189 6.59473 36.9168 6.60376 38.3118 6.62177C39.0094 6.63078 39.7081 6.64206 40.2648 6.65563C40.8033 6.66875 41.2499 6.68452 41.4104 6.70726C43.8046 7.04648 46.0297 8.15685 47.5401 10.0613C49.367 12.3647 49.9485 15.1286 49.9485 17.8038C49.9485 20.5982 49.3266 23.2816 47.5431 25.5803L47.5418 25.582C45.997 27.5541 43.8332 28.6544 41.4076 28.9827C41.2496 29.0041 40.8052 29.019 40.2668 29.0313C39.7108 29.0442 39.0126 29.0548 38.315 29.0633C36.9202 29.0802 35.5213 29.0886 35.2555 29.0886C34.9891 29.0886 33.5894 29.0799 32.1936 29.0623C31.4955 29.0536 30.7967 29.0426 30.2401 29.0294C29.7014 29.0166 29.2557 29.0012 29.0964 28.9792C26.6664 28.6424 24.4843 27.5236 22.9709 25.5842C21.1424 23.3167 20.5625 20.5509 20.5625 17.8038C20.5625 15.0911 21.1818 12.2889 22.9711 10.061C24.4245 8.21245 26.649 7.06046 29.0942 6.7094C29.255 6.68632 29.7021 6.6703 30.2406 6.65696C30.7976 6.64315 31.4966 6.63165 32.1947 6.62244ZM30.2631 7.56552C29.6929 7.57965 29.3166 7.59563 29.2233 7.60902C26.9702 7.93251 24.9708 8.98702 23.6842 10.6245L23.6812 10.6284H23.6811C22.0635 12.6414 21.4713 15.2157 21.4713 17.8038C21.4713 20.4328 22.027 22.9675 23.6805 25.0164L23.6853 25.0223V25.0224C25.0338 26.752 26.9905 27.7698 29.2211 28.0789C29.3151 28.0919 29.6921 28.1073 30.2617 28.1208C30.8133 28.1339 31.5082 28.1448 32.205 28.1536C33.5992 28.1711 34.9946 28.1798 35.2555 28.1798C35.516 28.1798 36.9108 28.1714 38.304 28.1545C39.0004 28.146 39.6948 28.1354 40.2459 28.1227C40.8146 28.1097 41.1917 28.0948 41.2857 28.082C43.5075 27.7814 45.4452 26.7842 46.8257 25.0224C48.4499 22.9285 49.0396 20.4621 49.0396 17.8038C49.0396 15.2532 48.4851 12.7154 46.828 10.6261C45.4855 8.93329 43.4862 7.9193 41.2829 7.60711C41.1892 7.59383 40.8125 7.57809 40.2427 7.56421C39.6911 7.55076 38.9965 7.53954 38.3 7.53054C36.9068 7.51255 35.5133 7.50357 35.2555 7.50357C34.9958 7.50357 33.6009 7.51282 32.2067 7.53121C31.5098 7.5404 30.8149 7.55185 30.2631 7.56552ZM29.2576 10.3015C29.2537 10.3021 29.2517 10.3025 29.2513 10.3026C27.8871 10.5867 26.6924 11.2713 25.9279 12.3161L25.9195 12.3275L25.9194 12.3274C24.8 13.7616 24.4251 15.7971 24.4251 17.8038C24.4251 19.8863 24.8 21.8839 25.9194 23.3181L25.9281 23.3292L25.9279 23.3294C26.6946 24.3772 27.8921 25.0814 29.2546 25.3753C29.2556 25.3755 29.2631 25.3769 29.2799 25.3792C29.2972 25.3815 29.3201 25.3841 29.3489 25.387C29.4066 25.3926 29.4814 25.3984 29.5725 25.4042C29.7545 25.4157 29.9913 25.4266 30.2666 25.4368C30.8168 25.4571 31.5107 25.4742 32.2074 25.4879C33.6015 25.5152 34.9964 25.529 35.2555 25.529C35.5146 25.529 36.9088 25.5152 38.3019 25.4879C38.9982 25.4742 39.6915 25.4571 40.2409 25.4368C40.516 25.4266 40.7523 25.4157 40.9339 25.4042C41.0249 25.3984 41.0995 25.3926 41.157 25.387C41.1857 25.3842 41.2084 25.3815 41.2256 25.3792C41.2439 25.3767 41.251 25.3752 41.2503 25.3754C42.6011 25.0823 43.7896 24.3787 44.5874 23.3236L44.5916 23.3181C45.711 21.8839 46.0859 19.8863 46.0859 17.8038C46.0859 15.7971 45.711 13.7616 44.5916 12.3274L44.5873 12.3219H44.5874C43.7919 11.2698 42.606 10.5858 41.2534 10.3024C41.2537 10.3025 41.2462 10.301 41.2277 10.2986C41.2102 10.2963 41.1873 10.2937 41.1585 10.291C41.1008 10.2855 41.026 10.2799 40.935 10.2743C40.7532 10.2632 40.5166 10.2527 40.2416 10.2429C39.692 10.2233 38.9986 10.2069 38.3023 10.1938C36.9092 10.1675 35.5148 10.1544 35.2555 10.1544C34.9962 10.1544 33.6012 10.1675 32.2071 10.1938C31.5103 10.2069 30.8163 10.2233 30.266 10.2429C29.9906 10.2527 29.7537 10.2632 29.5715 10.2743C29.4803 10.2799 29.4053 10.2855 29.3473 10.291C29.3184 10.2937 29.2954 10.2963 29.2778 10.2986L29.2576 10.3015ZM32.1899 9.28512C33.5865 9.25878 34.9879 9.24553 35.2555 9.24553C35.5231 9.24553 36.9239 9.25878 38.3194 9.28512C39.0175 9.29829 39.7168 9.31478 40.2739 9.33462C40.5522 9.34453 40.7975 9.35536 40.9905 9.36719C41.1698 9.37818 41.3387 9.3917 41.4398 9.4129C42.9719 9.73392 44.3627 10.5194 45.3102 11.7709C46.6127 13.4417 46.9947 15.7219 46.9947 17.8038C46.9947 19.9615 46.6127 22.2039 45.3102 23.8746C44.365 25.1231 42.9768 25.9307 41.443 26.2636C41.3406 26.2858 41.1706 26.2998 40.9916 26.3112C40.7984 26.3235 40.5529 26.3347 40.2745 26.345C39.7173 26.3656 39.0179 26.3828 38.3198 26.3965C36.9242 26.424 35.5232 26.4378 35.2555 26.4378C34.9878 26.4378 33.5862 26.424 32.1896 26.3965C31.491 26.3828 30.791 26.3656 30.2331 26.345C29.9544 26.3347 29.7086 26.3235 29.515 26.3112C29.3354 26.2998 29.1654 26.2858 29.063 26.2637C27.5243 25.9318 26.1187 25.1258 25.1986 23.8717C23.8979 22.2013 23.5162 19.9603 23.5162 17.8038C23.5162 15.723 23.8979 13.4443 25.1986 11.7737C26.1209 10.5167 27.5292 9.73285 29.0661 9.41278C29.1673 9.3917 29.3362 9.37818 29.516 9.36719C29.7094 9.35536 29.9551 9.34453 30.2337 9.33462C30.7915 9.31478 31.4914 9.29829 32.1899 9.28512Z" fill="#DD983E"/>
</svg>
