<svg width="22" height="21" viewBox="0 0 22 21" fill="none" xmlns="http://www.w3.org/2000/svg">
<path d="M8.04783 6.14766L8.05083 6.09775C7.90647 6.08906 7.74007 6.08906 7.57564 6.08906H7.57461C7.39851 6.08906 7.11669 6.15298 6.87789 6.40086L6.87758 6.40118C6.86267 6.41694 6.84594 6.43419 6.82769 6.45301C6.56734 6.72145 5.99783 7.30866 5.99783 8.425C5.99783 9.02322 6.22402 9.60852 6.46285 10.0618C6.68967 10.4922 6.93014 10.8077 7.00597 10.9072C7.01012 10.9127 7.01378 10.9175 7.01691 10.9216L7.01691 10.9216L7.01745 10.9223C7.02578 10.9329 7.04111 10.954 7.06324 10.9845C7.36577 11.4011 8.93898 13.5677 11.2697 14.5383L11.2697 14.5384C12.0566 14.8654 12.6073 15.0442 13.0612 15.1268C13.5164 15.2097 13.8725 15.1954 14.2692 15.139L14.2692 15.1389C14.5171 15.1033 14.8898 14.9559 15.2253 14.7485C15.5595 14.542 15.8699 14.2681 15.9787 13.9723C16.0829 13.6889 16.1352 13.4257 16.1534 13.2199C16.1626 13.1171 16.1632 13.0278 16.1574 12.957C16.1518 12.8899 16.1399 12.8315 16.1178 12.7955C16.0813 12.729 16.0146 12.6817 15.9344 12.6382C15.8796 12.6085 15.8133 12.578 15.7388 12.5437C15.7034 12.5274 15.6662 12.5103 15.6275 12.4921C15.504 12.4315 15.1379 12.2575 14.7742 12.0889C14.4122 11.9211 14.0478 11.7564 13.9304 11.7165C13.8179 11.6762 13.7093 11.6416 13.6058 11.6533C13.497 11.6656 13.4028 11.7272 13.3146 11.8557C13.1518 12.0929 12.6812 12.6229 12.533 12.7872L12.533 12.7873C12.4666 12.8611 12.4044 12.8976 12.3349 12.9059C12.2634 12.9144 12.1756 12.8944 12.0564 12.836L12.0561 12.8358C11.3287 12.4857 10.7303 12.1751 10.1942 11.7555C9.65879 11.3364 9.18387 10.8073 8.70667 10.019C8.64651 9.91946 8.63774 9.85701 8.65193 9.80514C8.66738 9.74865 8.71243 9.693 8.79071 9.61249C8.80762 9.59509 8.82572 9.57688 8.84484 9.55763C8.99959 9.40186 9.22187 9.17811 9.43595 8.76602L9.4362 8.76552C9.52704 8.5858 9.47948 8.42989 9.41362 8.30312C9.38351 8.24515 9.24514 7.92458 9.0871 7.55509C9.02278 7.4047 8.95543 7.24677 8.89126 7.0963C8.79855 6.87888 8.71248 6.67705 8.65179 6.53609L8.65175 6.536C8.54883 6.29826 8.44038 6.18554 8.32896 6.13537C8.27377 6.11052 8.22099 6.1025 8.17356 6.09988C8.15008 6.09858 8.12748 6.0986 8.10706 6.09863L8.10599 6.09863C8.08551 6.09867 8.06759 6.0987 8.05065 6.09774L8.04783 6.14766ZM8.04783 6.14766C8.06624 6.1487 8.08544 6.14867 8.10532 6.14863C8.24936 6.14839 8.42934 6.14809 8.60586 6.55586M8.04783 6.14766C7.90498 6.13906 7.73981 6.13906 7.57464 6.13906H7.57461C7.40943 6.13906 7.14158 6.19922 6.9139 6.43555C6.89892 6.45138 6.88216 6.46866 6.86393 6.48746C6.60499 6.75451 6.04783 7.32912 6.04783 8.425C6.04783 9.5676 6.8907 10.6735 7.04585 10.8771C7.04998 10.8825 7.05363 10.8873 7.05675 10.8914L8.60586 6.55586M8.60586 6.55586C8.66652 6.69675 8.7525 6.89838 8.84516 7.11567C9.06619 7.63397 9.32522 8.2414 9.36925 8.32617C9.43175 8.44648 9.47193 8.58398 9.39157 8.74297M8.60586 6.55586L9.39157 8.74297M9.39157 8.74297C9.18112 9.1481 8.9636 9.3671 8.80931 9.52244C8.61667 9.71639 8.5226 9.8111 8.6639 10.0449L9.39157 8.74297ZM6.34064 18.9754C7.79012 19.734 9.42133 20.1324 11.0835 20.1324H11.088C16.573 20.1324 21.1425 15.8327 21.1425 10.5434C21.1425 7.9802 20.0108 5.57426 18.1316 3.76128C16.2516 1.9474 13.748 0.95 11.088 0.95C5.59792 0.95 1.12729 5.25029 1.12729 10.5391C1.12729 12.2211 1.58124 13.8645 2.44472 15.3157L1.04438 20.2363L1.02064 20.3197L1.10472 20.2985L6.34064 18.9754ZM6.58023 17.1507L3.54814 17.9159L4.35486 15.073L4.36107 15.0511L4.34862 15.032L4.15219 14.7313L4.15218 14.7312C3.33159 13.4761 2.9014 12.0289 2.9014 10.5391C2.9014 6.19856 6.5736 2.66133 11.0925 2.66133C13.2807 2.66133 15.3351 3.4815 16.8792 4.97191C18.4244 6.46347 19.3728 8.44038 19.3684 10.5433V10.5434C19.3684 14.8875 15.6031 18.4254 11.088 18.4254C9.61441 18.4254 8.17209 18.0452 6.91638 17.3277L6.61738 17.1559L6.59984 17.1458L6.58023 17.1507Z" fill="#282828" stroke="#282828" stroke-width="0.1"/>
</svg>
