<svg width="45" height="384" fill="none" xmlns="http://www.w3.org/2000/svg"><path fill="#DD983E" d="M22 0h1v171h-1zm0 214h1v170h-1z"/><circle cx="22.5" cy="192.5" r="22" fill="#fff" fill-opacity=".2" stroke="#DD983E"/><path d="M10.77 192.802c0 .176.066.327.207.457l3.907 3.827a.57.57 0 00.417.171.592.592 0 00.597-.597.612.612 0 00-.18-.427l-3.521-3.431 3.52-3.43a.621.621 0 00.181-.427.592.592 0 00-.597-.597.574.574 0 00-.417.17l-3.907 3.822a.617.617 0 00-.206.462zm22.46 0a.656.656 0 00-.207-.462l-3.907-3.822a.582.582 0 00-.417-.17.59.59 0 00-.597.597.6.6 0 00.18.427l3.516 3.43-3.516 3.431a.591.591 0 00-.18.427.59.59 0 00.597.597c.16 0 .302-.06.417-.171l3.907-3.827a.596.596 0 00.206-.457z" fill="#DD983E"/></svg>