<svg width="24" height="24" fill="none" xmlns="http://www.w3.org/2000/svg"><path d="M18.565 18.565h0c.325-.324.528-.637.696-1.057.242-.607.337-1.638.37-2.696.025-.76.017-1.528.011-2.154-.002-.244-.005-.466-.005-.658 0-.193.003-.416.005-.66.006-.626.014-1.394-.01-2.153-.034-1.058-.128-2.09-.368-2.698a2.95 2.95 0 00-.697-1.056h0a2.928 2.928 0 00-1.057-.697c-.607-.24-1.639-.334-2.697-.368a52.323 52.323 0 00-2.152-.01c-.245.002-.468.005-.661.005s-.416-.003-.66-.005a52.32 52.32 0 00-2.153.01c-1.058.034-2.09.128-2.697.368a2.98 2.98 0 00-1.057.697 2.928 2.928 0 00-.697 1.057c-.24.607-.334 1.639-.368 2.697-.024.76-.016 1.527-.01 2.152.002.245.004.468.004.661s-.002.416-.004.66c-.006.626-.014 1.393.01 2.152.034 1.058.128 2.09.368 2.698.169.42.371.731.697 1.057h0a2.94 2.94 0 001.056.697l12.076-.7zm0 0a2.95 2.95 0 01-1.057.696m1.057-.696l-1.057.696M15.831 6.998c0-.648.524-1.172 1.173-1.172 0 0 0 0 0 0v.05L15.83 6.998zm0 0c0 .65.524 1.173 1.173 1.173M15.83 6.998l1.173 1.173m0 0A1.17 1.17 0 0018.177 7l-1.173 1.17zm.504 11.09c-.607.242-1.638.337-2.696.37m2.696-.37l-2.696.37m0 0c-.76.025-1.528.017-2.154.011m2.154-.01l-2.154.01m0 0c-.244-.002-.466-.005-.658-.005m.658.005L12 19.637m0 0c-.193 0-.416.003-.66.005m.66-.005l-.66.005m0 0c-.627.006-1.394.014-2.153-.01m2.152.01l-2.152-.01m0 0c-1.058-.034-2.09-.128-2.697-.368l2.697.368zM12 7.143A4.85 4.85 0 007.143 12 4.85 4.85 0 0012 16.857 4.85 4.85 0 0016.857 12 4.85 4.85 0 0012 7.143zm0 7.931A3.08 3.08 0 018.926 12 3.08 3.08 0 0112 8.926 3.08 3.08 0 0115.074 12 3.08 3.08 0 0112 15.074zM21.42 12v-.473c.002-1.133.003-2.262-.06-3.397-.074-1.506-.418-2.852-1.527-3.96-1.111-1.112-2.455-1.454-3.96-1.527-1.138-.064-2.266-.063-3.398-.061a436.832 436.832 0 01-.946 0c-1.133-.002-2.261-.003-3.396.061-1.507.073-2.852.417-3.961 1.526C3.06 5.281 2.718 6.624 2.645 8.13c-.063 1.138-.062 2.266-.061 3.398a412.918 412.918 0 010 .944c-.001 1.133-.002 2.263.061 3.398.073 1.506.418 2.851 1.527 3.96 1.111 1.112 2.454 1.454 3.96 1.527 1.138.064 2.266.063 3.398.061a371.661 371.661 0 01.946 0c1.133.002 2.26.003 3.396-.061 1.506-.073 2.852-.417 3.961-1.526 1.112-1.112 1.453-2.455 1.526-3.961.065-1.117.063-2.226.062-3.341V12z" fill="#282828" stroke="#282828" stroke-width=".1"/></svg>