<svg width="141" height="38" fill="none" xmlns="http://www.w3.org/2000/svg"><path d="M137.161 7.655l-6.627 17.42-7.308-17.458h-2.878l8.861 21.017c-1.363 3.598-1.78 4.62-2.651 5.264-.719.53-1.439.568-2.802.53v2.689c2.083.038 3.067 0 4.127-.758 1.174-.795 1.97-2.234 2.727-4.279l9.391-24.425h-2.84zm-21.812-.605c-1.704.039-3.484.569-4.81 1.705-.719.606-1.287 1.212-1.704 1.931V7.62h-2.499v20.449h2.802v-9.732c0-2.954.038-5.302 1.969-7.12.985-.946 2.424-1.514 4.052-1.552 1.098-.038 2.083.113 2.954.454V7.43a9.743 9.743 0 00-2.764-.378zM86.605 18.639h16.094c.076-3.143-.417-6.097-2.196-8.332-1.78-2.234-4.28-3.256-7.195-3.256-2.954 0-5.605 1.098-7.385 3.294-1.704 2.159-2.31 4.885-2.31 7.574 0 2.575.606 5.226 2.31 7.384 1.704 2.197 4.544 3.333 7.46 3.333 1.818 0 3.674-.455 5.226-1.363a9.491 9.491 0 003.711-4.242l-2.613-.984a7.397 7.397 0 01-2.499 2.878c-1.136.72-2.461 1.06-3.9 1.06-2.045 0-4.014-.833-5.188-2.386-1.023-1.363-1.44-3.143-1.515-4.96zm6.703-9.051c1.969 0 3.938.795 5.074 2.31.947 1.212 1.287 2.65 1.401 4.355h-13.14c.151-1.59.568-3.105 1.514-4.317 1.212-1.59 3.144-2.348 5.15-2.348zM77.783 8.6c-1.25-1.06-2.954-1.514-4.468-1.514-2.31 0-4.507 1.06-5.794 2.916l-.341.53c-.34-.682-.833-1.325-1.59-1.931-1.25-1.06-2.954-1.515-4.469-1.515-2.196 0-4.393.985-5.68 2.764V7.616h-2.5v20.45h2.803v-13.18c0-1.324.151-2.46 1.06-3.597a4.823 4.823 0 013.711-1.742c1.098 0 2.197.417 2.992 1.136 1.552 1.288 1.666 2.651 1.666 4.923l-.038 12.46H67.9v-13.18c0-1.325.152-2.462 1.099-3.598.87-1.098 2.234-1.742 3.71-1.742 1.099 0 2.16.417 2.954 1.136 1.553 1.288 1.667 2.651 1.667 4.923v12.46h2.726l.038-12.573c0-2.992-.076-5.037-2.31-6.892zm-63.393.153c-1.704-1.363-3.787-1.742-5.794-1.59-1.818.075-3.749.72-5.112 2.12a7.29 7.29 0 00-.985 1.212V.801H0v27.265h2.802V17.54c0-1.06.038-2.045.227-2.916.266-1.401.91-2.651 1.894-3.522.909-.833 2.158-1.288 3.484-1.325 1.515-.076 2.878.303 3.976 1.098 2.045 1.515 2.386 4.165 2.386 7.346v9.846h2.802v-9.921c.038-3.636-.34-7.271-3.181-9.392z" fill="#fff"/><path fill-rule="evenodd" clip-rule="evenodd" d="M32.195 6.622c1.396-.018 2.795-.027 3.06-.027.264 0 1.662.009 3.057.027.697.009 1.396.02 1.953.034.538.013.985.029 1.145.051 2.395.34 4.62 1.45 6.13 3.354 1.827 2.304 2.409 5.068 2.409 7.743 0 2.794-.622 5.478-2.406 7.776l-.001.002c-1.545 1.972-3.709 3.072-6.134 3.4-.158.022-.603.037-1.141.05a380.948 380.948 0 01-5.011.057c-.267 0-1.667-.01-3.062-.027-.699-.008-1.397-.02-1.954-.033-.539-.012-.984-.028-1.144-.05-2.43-.337-4.612-1.455-6.125-3.395-1.829-2.267-2.409-5.033-2.409-7.78 0-2.713.62-5.515 2.41-7.743 1.452-1.849 3.677-3 6.122-3.352.161-.023.608-.039 1.147-.052a179.02 179.02 0 011.954-.035zm-1.932.944c-.57.014-.946.03-1.04.043-2.253.324-4.252 1.378-5.539 3.015l-.003.004c-1.617 2.013-2.21 4.588-2.21 7.176 0 2.629.556 5.164 2.21 7.212l.004.006c1.349 1.73 3.306 2.748 5.536 3.057.094.013.471.028 1.04.042.552.013 1.247.024 1.944.033 1.394.017 2.79.026 3.05.026a389.115 389.115 0 004.991-.057 17.36 17.36 0 001.04-.041c2.221-.3 4.16-1.298 5.54-3.06 1.624-2.093 2.214-4.56 2.214-7.218 0-2.55-.555-5.089-2.212-7.178-1.343-1.693-3.342-2.707-5.545-3.019a16.77 16.77 0 00-1.04-.043 359.088 359.088 0 00-4.987-.06c-.26 0-1.655.009-3.05.027-.696.01-1.391.02-1.943.035zm-1.005 2.736a.103.103 0 00-.007 0c-1.364.285-2.559.97-3.323 2.014l-.009.011c-1.119 1.435-1.494 3.47-1.494 5.477 0 2.082.375 4.08 1.494 5.514l.01.011h-.001c.767 1.048 1.964 1.752 3.327 2.046l.025.004.069.008a24.46 24.46 0 00.918.05 231.51 231.51 0 004.988.092c.26 0 1.654-.014 3.047-.041.696-.014 1.39-.03 1.939-.051a27.9 27.9 0 00.693-.033 6.938 6.938 0 00.292-.025l.024-.004c1.351-.293 2.54-.996 3.337-2.051l.005-.006c1.119-1.434 1.494-3.432 1.494-5.514 0-2.007-.375-4.042-1.494-5.477l-.005-.005c-.795-1.052-1.981-1.736-3.334-2.02l-.025-.003a6.944 6.944 0 00-.293-.024 28.828 28.828 0 00-.693-.032c-.55-.02-1.243-.036-1.94-.05a271.924 271.924 0 00-3.047-.039c-.259 0-1.654.014-3.048.04-.697.013-1.39.03-1.941.049-.275.01-.512.02-.694.031a7.033 7.033 0 00-.294.025l-.02.003zm2.932-1.017a246.12 246.12 0 013.066-.04c.267 0 1.668.014 3.063.04.698.013 1.398.03 1.955.05.278.01.523.02.716.032.18.011.349.025.45.046 1.532.32 2.923 1.106 3.87 2.358 1.303 1.67 1.685 3.95 1.685 6.033 0 2.158-.382 4.4-1.685 6.07-.945 1.25-2.333 2.057-3.867 2.39a3.606 3.606 0 01-.451.047c-.194.012-.44.024-.717.034-.558.02-1.257.038-1.955.052-1.396.027-2.797.04-3.065.04-.267 0-1.669-.013-3.065-.04-.699-.014-1.399-.031-1.957-.052-.279-.01-.524-.021-.718-.034a3.626 3.626 0 01-.452-.047c-1.539-.332-2.944-1.138-3.864-2.392-1.301-1.67-1.683-3.912-1.683-6.068 0-2.081.382-4.36 1.683-6.03.922-1.257 2.33-2.041 3.867-2.361.101-.021.27-.035.45-.046.193-.012.44-.022.718-.032.557-.02 1.257-.037 1.956-.05z" fill="#DD983E"/></svg>