<svg width="22" height="21" fill="none" xmlns="http://www.w3.org/2000/svg"><path d="M8.048 6.148l.003-.05c-.145-.009-.31-.009-.475-.009h-.001a.984.984 0 00-.697.312h0l-.05.052c-.26.268-.83.856-.83 1.972 0 .598.226 1.184.465 1.637.227.43.467.746.543.845.004.006.008.01.01.015h.001c.009.01.024.032.046.063.303.416 1.876 2.583 4.207 3.553h0c.787.327 1.337.506 1.791.589.455.083.812.068 1.208.012h0c.248-.036.62-.183.956-.39.335-.207.645-.48.754-.777a2.99 2.99 0 00.174-.752c.01-.103.01-.192.004-.263a.392.392 0 00-.04-.162.431.431 0 00-.183-.157c-.054-.03-.12-.06-.195-.094l-.112-.052c-.123-.06-.49-.235-.853-.403a14.761 14.761 0 00-.844-.373.747.747 0 00-.324-.063c-.109.013-.203.074-.291.203-.163.237-.634.767-.782.931h0c-.066.074-.129.11-.198.119a.513.513 0 01-.279-.07h0c-.727-.35-1.326-.66-1.862-1.08-.535-.42-1.01-.949-1.487-1.737-.06-.1-.07-.162-.055-.214.015-.056.06-.112.139-.193l.054-.054c.155-.156.377-.38.59-.792h.001c.091-.18.043-.336-.022-.463-.03-.058-.169-.378-.327-.748l-.196-.459-.24-.56h0c-.102-.238-.21-.35-.322-.4a.427.427 0 00-.155-.036 1.158 1.158 0 00-.067-.001h-.001l-.055-.001-.003.05zm0 0a.997.997 0 00.057 0c.144 0 .324 0 .5.408m-.557-.408c-.143-.009-.308-.009-.473-.009h0a.934.934 0 00-.661.297l-.05.051c-.259.268-.816.842-.816 1.938 0 1.143.843 2.248.998 2.452l.01.014 1.55-4.335m0 0l.24.56c.22.518.48 1.125.523 1.21.063.12.103.258.023.417m-.786-2.187l.786 2.187m0 0c-.21.405-.428.624-.583.78-.192.193-.286.288-.145.522l.728-1.302zM6.34 18.975c1.45.759 3.08 1.157 4.743 1.157h.004c5.485 0 10.054-4.3 10.054-9.589 0-2.563-1.131-4.969-3.01-6.782C16.252 1.947 13.748.95 11.088.95c-5.49 0-9.96 4.3-9.96 9.59 0 1.681.453 3.325 1.317 4.776l-1.4 4.92-.024.084.084-.021 5.236-1.324zm.24-1.824l-3.033.765.807-2.843.006-.022-.012-.019-.197-.3h0a7.635 7.635 0 01-1.25-4.193c0-4.34 3.672-7.878 8.19-7.878 2.189 0 4.243.82 5.787 2.31 1.545 1.492 2.494 3.47 2.49 5.572v0c0 4.345-3.766 7.882-8.281 7.882a8.418 8.418 0 01-4.172-1.097l-.299-.172-.017-.01-.02.005z" fill="#282828" stroke="#282828" stroke-width=".1"/></svg>