<svg width="20" height="20" viewBox="0 0 20 20" fill="none" xmlns="http://www.w3.org/2000/svg">
<path d="M19.4796 14.1392L19.4671 1.53321C19.4671 0.654299 18.8895 0.0516205 17.9855 0.0516205H5.36691C4.51311 0.0516205 3.92299 0.691967 3.92299 1.44531C3.92299 2.18611 4.56334 2.80134 5.32924 2.80134H9.83678L15.1604 2.62556L12.8753 4.63449L0.959821 16.5625C0.671038 16.8638 0.507812 17.2154 0.507812 17.567C0.507812 18.3078 1.18583 19.0109 1.95173 19.0109C2.30329 19.0109 2.65486 18.8602 2.95619 18.5714L14.8842 6.64342L16.9182 4.35826L16.7048 9.45592V14.1769C16.7048 14.9554 17.32 15.6083 18.0859 15.6083C18.8393 15.6083 19.4796 14.9679 19.4796 14.1392Z" fill="#141414"/>
</svg>
