<svg width="24" height="24" viewBox="0 0 24 24" fill="none" xmlns="http://www.w3.org/2000/svg">
<path d="M18.5646 18.5647L18.5648 18.5645C18.8902 18.2414 19.0927 17.9285 19.2613 17.5081C19.5026 16.901 19.5977 15.8695 19.6314 14.8118C19.6556 14.052 19.6481 13.2843 19.642 12.6583C19.6397 12.4144 19.6375 12.192 19.6375 12C19.6375 11.8074 19.6397 11.5842 19.6421 11.3394C19.6482 10.7136 19.6557 9.94636 19.6317 9.18704C19.5982 8.12877 19.5038 7.09664 19.2637 6.48949C19.0951 6.06921 18.8925 5.75858 18.567 5.43302L18.5669 5.4329C18.2438 5.1075 17.9309 4.90496 17.5104 4.73631C16.9032 4.49625 15.8712 4.40177 14.813 4.36835C14.0536 4.34436 13.2864 4.35184 12.6606 4.35795C12.4158 4.36034 12.1926 4.36251 12 4.36251C11.8074 4.36251 11.5842 4.36034 11.3394 4.35795C10.7135 4.35184 9.94635 4.34436 9.18702 4.36835C8.12883 4.40177 7.09678 4.49625 6.48961 4.7363C6.06939 4.90486 5.75863 5.1097 5.43288 5.43315C5.10747 5.75624 4.90494 6.06916 4.73628 6.48961C4.49623 7.09678 4.40175 8.12884 4.36832 9.18704C4.34434 9.94636 4.35182 10.7136 4.35793 11.3394C4.36031 11.5842 4.36249 11.8074 4.36249 12C4.36249 12.1927 4.36031 12.4158 4.35793 12.6606C4.35182 13.2862 4.34434 14.053 4.36832 14.8121C4.40175 15.87 4.49622 16.902 4.73628 17.5104C4.9049 17.9307 5.10742 18.2414 5.433 18.567L5.43313 18.5671C5.75619 18.8925 6.06908 19.095 6.48947 19.2637L18.5646 18.5647ZM18.5646 18.5647C18.2391 18.8902 17.9284 19.0927 17.5081 19.2614M18.5646 18.5647L17.5081 19.2614M15.8312 6.99845C15.8312 6.34976 16.3552 5.82583 17.0038 5.82579C17.0039 5.82579 17.0039 5.82579 17.0039 5.82579V5.87579L15.8312 6.99845ZM15.8312 6.99845C15.8312 7.64716 16.3552 8.1711 17.0039 8.1711M15.8312 6.99845L17.0039 8.1711M17.0039 8.1711C17.6525 8.1711 18.1765 7.6496 18.1766 6.99851L17.0039 8.1711ZM17.5081 19.2614C16.901 19.5026 15.8695 19.5977 14.8118 19.6314M17.5081 19.2614L14.8118 19.6314M14.8118 19.6314C14.052 19.6556 13.2843 19.6481 12.6583 19.642M14.8118 19.6314L12.6583 19.642M12.6583 19.642C12.4144 19.6397 12.192 19.6375 12 19.6375M12.6583 19.642L12 19.6375M12 19.6375C11.8074 19.6375 11.5842 19.6397 11.3394 19.6421M12 19.6375L11.3394 19.6421M11.3394 19.6421C10.7135 19.6482 9.94635 19.6557 9.18702 19.6317M11.3394 19.6421L9.18702 19.6317M9.18702 19.6317C8.12888 19.5982 7.09688 19.5038 6.4897 19.2638L9.18702 19.6317ZM12 7.14298C9.31222 7.14298 7.14296 9.31224 7.14296 12C7.14296 14.6878 9.31222 16.857 12 16.857C14.6878 16.857 16.857 14.6878 16.857 12C16.857 9.31224 14.6878 7.14298 12 7.14298ZM12 15.0742C10.3073 15.0742 8.92578 13.6927 8.92578 12C8.92578 10.3073 10.3073 8.92579 12 8.92579C13.6927 8.92579 15.0742 10.3073 15.0742 12C15.0742 13.6927 13.6927 15.0742 12 15.0742ZM21.4203 12C21.4203 11.8422 21.4205 11.6845 21.4207 11.5269C21.4219 10.3935 21.4232 9.26545 21.3593 8.13021C21.2863 6.624 20.9422 5.2785 19.833 4.16934C18.7215 3.05784 17.3783 2.71603 15.8721 2.64305C14.7348 2.57918 13.6065 2.58044 12.4746 2.5817C12.3173 2.58187 12.1599 2.58204 12.0023 2.58204C11.8445 2.58204 11.6868 2.58187 11.5292 2.5817C10.3958 2.58044 9.26779 2.57919 8.13254 2.64305C6.62633 2.71603 5.28082 3.06019 4.17167 4.16934C3.06016 5.28085 2.71835 6.62403 2.64537 8.13021C2.5815 9.26756 2.58276 10.3959 2.58401 11.5277C2.58419 11.6851 2.58436 11.8425 2.58436 12C2.58436 12.1575 2.58419 12.3149 2.58401 12.4723C2.58276 13.6046 2.5815 14.7345 2.64537 15.8698C2.71835 17.376 3.06251 18.7215 4.17167 19.8307C5.2832 20.9422 6.62642 21.284 8.13265 21.357C9.26995 21.4208 10.3982 21.4196 11.53 21.4183C11.6874 21.4181 11.8448 21.418 12.0023 21.418C12.1602 21.418 12.3179 21.4181 12.4755 21.4183C13.6089 21.4196 14.7369 21.4208 15.8721 21.357C17.3784 21.284 18.7239 20.9398 19.833 19.8307C20.9445 18.7191 21.2863 17.3759 21.3593 15.8697C21.4242 14.7531 21.4225 13.6435 21.4208 12.5289C21.4206 12.3528 21.4203 12.1765 21.4203 12Z" fill="#282828" stroke="#282828" stroke-width="0.1"/>
</svg>
